<svg width="256" height="256" viewBox="0 0 256 256" fill="none" xmlns="http://www.w3.org/2000/svg">
<g clip-path="url(#clip0_1_42)">
<path d="M134.204 93.6475L159.419 68.437L128.337 37.0221L99.1662 66.045L146.309 113.191L137.787 121.714L82.1182 66.0487L128.404 20L176.396 68.5037L142.73 102.17L134.204 93.6475Z" fill="#00547F"/>
<path d="M94.7123 122.663L68.456 96.6774L37.0485 128.018L68.1222 158.825L124.696 102.251L133.218 110.777L68.1853 175.81L20.0005 128.048L68.4189 79.7294L103.19 114.141L94.7123 122.663Z" fill="#00547F"/>
<path d="M128.352 156.559L96.8521 187.992L127.722 218.929L159.103 187.61L128.352 156.555V156.559ZM84.1134 183.724L119.893 148.018L103.783 131.749L112.306 123.271L176.074 187.662L127.703 235.929L79.8486 187.974L84.1097 183.72L84.1134 183.724Z" fill="#00547F"/>
<path d="M159.022 125.952L189.984 156.796L219.003 127.84L188.134 96.9036L159.025 125.949L159.022 125.952ZM185.749 169.546L150.514 134.441L140.776 144.161L132.298 135.639L188.149 79.9074L236.003 127.862L189.992 173.774L185.749 169.55V169.546Z" fill="#00547F"/>
<path fill-rule="evenodd" clip-rule="evenodd" d="M69.1717 110.506L86.4646 127.803L69.1717 145.096L51.8789 127.803L69.1717 110.506Z" fill="#FAA633"/>
</g>
<defs>
<clipPath id="clip0_1_42">
<rect width="216" height="215.929" fill="white" transform="translate(20 20)"/>
</clipPath>
</defs>
</svg>
